/* XPM */
static const char *DragonDOS_Logo[] = {
/* columns rows colors chars-per-pixel */
"160 110 9 1 ",
"  c None",
". c #000000",
"X c #070707",
"o c #626262",
"O c #646464",
"+ c #656565",
"@ c #666666",
"# c #FF0000",
"$ c #FFFFFF",
/* pixels */
" ................................................................................................                                                               ",
".@@@@@@@@@@@@@@@@@@@@@@@@@@@@@@@@@@@@@@@@@@@@@@@@@@@@@@@@@@@@@@@@@@@@@@@@@@@@@@@@@@@@@@@@@@@@@@@@.                                                              ",
".@@@@@@@@@@@@@@@@@@@@@@@@@@@@@@@@@@@@@@@@@@@@@@@@@@@@@@@@@@@@@@@@@@@@@@@@@@@@@@@@@@@@@@@@@@@@@@@@.                                                              ",
".@@@@..............................................@@@@@@@@@@@@@@@@@@@@@@@@@@@@@@@@@@@@@@@@@@@@@@.                                                              ",
".@@@.$$$$$$$$$$$$$$$$$$$$$$$$$$$$$$$$$$$$$$$$$$$$$$.@@@@@@@@@@@@@@@@@@@@@@@@@@@@@@@@@@@@@@@@@@@@@.                                                              ",
".@@@.$$$$$$$$$$$$$$$$$$$$$$$$$$$$$$$$$$$$$$$$$$$$$$.@@@@@@@@@@@@@@@@@@@@@@@@@@@@@@@@@@@@@@@@@@@@@.                                                              ",
".@@@.$$$$$$$$$$$$$$$$$$$$$$$$$$$$$$$$$$$$$$$$$$$$$$.@@@@@@@@@@@@@@@@@@@@@@@@@@@@@@@@@@@@@@@@@@@@@.                                                              ",
".@@@.$$$$.........$$$$$$$.......$$$$$$$.......$$$$$.@@@@@@@@@@@@@@@@@@@@@@@@@@@@@@@@@@@@@@@@@@@@@.                                                              ",
".@@@.$$$$.........$$$$$$$.......$$$$$$$.......$$$$$.@@@@@@@@@@@@@@@@@@@@@@@@@@@@@@@@@@@@@@@@@@@@@.                                                              ",
".@@@.$$$$$$..$$$$$..$$$..$$$$$$$..$$$..$$$$$$$..$$$.@@@@@@@@@@@@@@@@@@@@@@@@@@@@@@@@@@@@@@@@@@@@@.                                                              ",
".@@@.$$$$$$..$$$$$..$$$..$$$$$$$..$$$..$$$$$$$..$$$.@@@@@@@@@@@@@@@@@@@@@@@@@@@@@@@@@@@@@@@@@@@@@.                                                              ",
".@@@.$$$$$$..$$$$$..$$$..$$$$$$$..$$$..$$$$$$$..$$$.@@@@@@@@@@@@@@@@@@@@@@@@@@@@@@@@@@@@@@@@@@@@@.                                                              ",
".@@@.$$$$$$..$$$$$..$$$..$$$$$$$..$$$..$$$$$$$$$$$$.@@@@@@@@@@@@@@@@@@@@@@@@@@@@@@@@@@@@@@@@@@@@@.                                                              ",
".@@@.$$$$$$..$$$$$..$$$..$$$$$$$..$$$..$$$$$$$$$$$$.@@@@@@@@@@@@@@@@@@@@@@@@@@@@@@@@@@@@@@@@@@@@@.                                                              ",
".@@@.$$$$$$..$$$$$..$$$..$$$$$$$..$$$$$.......$$$$$.@@@@@@@@@@@@@@@@@@@@@@@@@@@@@@@@@@@@@@@@@@@@@.                                                              ",
".@@@.$$$$$$..$$$$$..$$$..$$$$$$$..$$$$$.......$$$$$.@@@@@@@@@@@@@@@@@@@@@@@@@@@@@@@@@@@@@@@@@@@@@.                                                              ",
".@@@.$$$$$$..$$$$$..$$$..$$$$$$$..$$$$$$$$$$$$..$$$.@@@@@@@@@@@@@@@@@@@@@@@@@@@@@@@@@@@@@@@@@@@@@.                                                              ",
".@@@.$$$$$$..$$$$$..$$$..$$$$$$$..$$$$$$$$$$$$..$$$.@@@@@@@@@@@@@@@@@@@@@@@@@@@@@@@@@@@@@@@@@@@@@.                                                              ",
".@@@.$$$$$$..$$$$$..$$$..$$$$$$$..$$$$$$$$$$$$..$$$.@@@@@@@@@@@@@@@@@@@@@@@@@@@@@@@@@@@@@@@@@@@@@.                                                              ",
".@@@.$$$$$$..$$$$$..$$$..$$$$$$$..$$$..$$$$$$$..$$$.@@@@@@@@@@@@@@@@@@@@@@@@@@@@@@@@@@@@@@@@@@@@@.                                                              ",
".@@@.$$$$$$..$$$$$..$$$..$$$$$$$..$$$..$$$$$$$..$$$.@@@@@@@@@@@@@@@@@@@@@@@@@@@@@@@@@@@@@@@@@@@@@.                                                              ",
".@@@.$$$$.........$$$$$$$.......$$$$$$$.......$$$$$.@@@@@@@@@@@@@@@@@@@@@@@@@@@@@@@@@@@@@@@@@@@@@.                                                              ",
".@@@.$$$$.........$$$$$$$.......$$$$$$$.......$$$$$.@@@@@@@@@@@@@@@@@@@@@@@@@@@@@@@@@@@@@@@@@@....                                                              ",
".@@@.$$$$$$$$$$$$$$$$$$$$$$$$$$$$$$$$$$$$$$$$$$$$$$.@@@@@@@@@@@@@@@@@@@@@@@@@@@@@@@@@@@@@@@@@@.                                                                 ",
".@@@.$$$$$$$$$$$$$$$$$$$$$$$$$$$$$$$$$$$$$$$$$$$$$$.@@@@@@@@@@@@@@@@@@@@@@@@@@@@@@@@@@@@@@@@@@.                                                                 ",
".@@@.$$$$$$$$$$$$$$$$$$$$$$$$$$$$$$$$$$$$$$$$$$$$$$.@@@@@@@@@@@@@@@@@@@@@@@@@@@@@@@@@@@@@@@@@@.                                                                 ",
".@@@.$$$$$$$$$$$$$$$$$$$$$$$$$$$$$$$$$$$$$$$$$$$$$$.@@@@@@@@@@@@@@@@@@@@@@@@@@@@@@@@@@@@@@@@@@.                                                                 ",
".@@@@..............................................@@@@@@@@@@@@@@@@@@@@@@@@@@@@@@@@@@@@@@@@@@@....                                                              ",
".@@@@@@@@@@@@@@@@@@@@@@@@@@@@@@@@@@@@@@@@@@@@@@@@@@@@@@@@@@@@@@@@@@@@@@@@@@@@@@@@@@@@@@@@@@@@@@@@.                                                              ",
".@@@@@@@@@@@@@@@@@@@@@@@@@@@@@@@@@@@@@@@@@@@@@@@@@@@@@@@@@@@@@@@@@@@@@@@@@@@@@@@@@@@@@@@@@@@@@@@@.                                                              ",
".@@@@@@@@@@@@@@@@@@@@@@@@@@@@@@@@@@@@@@@@@@@@@@@@@@@@@@@@@@@@@@@@@@@.@@@@@@@@@@@@@@@@@@@@@@@@@@@@.                   ...................................        ",
".@@@@@@@@@@@@@@@@@@@@@@@@@@@@@@@@@@@@@@@@@@@@@@@@@@@@@@@@@@@@@@@@@@.#.@@@@@@@@@@@@@@@@@@@@@@@@@@@.                 ..##################################.        ",
".@@@@@@@@@@@@@@@@@@@@@@@@@@@@@@@@@@@@@@@@@@@@@@@@@@@@@@@@@@@@@@@@@.###.@@@@@@@@@@@@@@@@@@@@@@@@@@.                .###################################.         ",
".@@@@@@@@@@@@@@@@@@@@@@@@@@@@@@@@@@@@@@@@@@@@@@@@@@@@@@@@@@@@@@@@.#####.@@@@@@@@@@@@@@@@@@@@@@@@@.               .####################################.         ",
".@@@@@@@@@@@@@@@@@@@@@@@@@@@@@@@@@@@@@@@@@@XXXXXXXXXXX@@@@@@@@@@@.##.##.@@@@@@@@@@@@@@@@@@@@@@@@@.              .####################################.          ",
".@@@@@@@@@@@@@@@@@@@@@@@@@@@@@@@@@@@@@@@@XXXXXXXXXXXXXXX@@@@@@@@.##.@.##.@@@@@@@@@@@@@@@@@@@@@@@@.             .#####################################.          ",
".@@@@@@@@@@@@@@@@@@@@@@@@@@@@@@@@@@@@@@XXXXXXXXXXXXXXXXXXX@@@@@.###.@.###.@@@@@@@@@@@@@@@@@@@@@@@.             .#######..............................           ",
".@@@@@@@@@@@@@@@@@@@@@@@@@@@@@@@@@@@@@XXXXXXXXXXXXXXXXXXXXX@@@.....@@@.....@@@@@@@@@@@@@@@@@@@@@@.            .######..                                         ",
".@@@@@@@@@@@@@@@@@@@@@@@@@@@@@@@@@@@@XXXXXXXXXXX XXXXXXXXXXX@@@@@@@@@@@@@@@@@@@@@@@@@@@@@@@@@@@@@.           .######.                                           ",
".@@@@@@@@@@@@@@@@@@@@@@@@@@@@@@@@@@@XXXXXXXX     .................@@@@@.....@@@@@@@@@@@@@@@@@@@@@.           .######.  .............................            ",
".@@@@@@@@@@@@@@@@@@@@@@@@@@@@@@@@@@XXXXXXX       .################.@@@.#####..@@@@@@@@@@@@@@@@@@@.          .######.  .############################.            ",
".@@@@@@@@@@@@@@@@@@@@@@@@@@@@@@@@@XXXXXXX         .################.@.########..@@@@@@@@@@@@@@@@@.          .#####.  .###..........................             ",
".@@@@@@@@@@@@@@@@@@@@@@@@@@@@@@@@@XXXXXX          .#################.###########..@@@@@@@@@@@@@@@.         .######.  .#..                                       ",
".@@@@@@@@@@@@@@@@@@@@@@@@@@@@@@@@@XXXXX           .###############################.@@@@@@@@@@@@@@.         .#####.  .##.  ........................              ",
".@@@@@@@@@@@@@@@@@@@@@@@@@@@@@@@@XXXXXX            .###############################.@@@@@@@@@@@@@.        .######.  .#.  .#######################.              ",
".@@@@@@@@@@@@@@@@@@@@@@@@@@@@@@@@XXXXX          .  ........................########.@@@@@@@@@@@@@.        .#####.  .##. .#######################.               ",
".@@@@@@@@@@@@@@@@@@@@@@@@@@@@@@@@XXXXX        ..#.         XXXXX@@@@@@@@@@@..#######.@@@@@@@@@@@@.       .######.  .#.  .#######################.               ",
".@@@@@@@@@@@@@@@@@@@@@@@@@@@@@@@@XXXXX      ..###..........................@@..######.@@@@@@@@@@@.       .#####.  .##. .#######################.                ",
".@@@@@@@@@@@@@@@@@@@@@@@@@@@@@@@@XXXX     ..###############################.@@@.#####.@@@@@@@@@@@.      .######.  .#.  .#######################.                ",
".@@@@@@@@@@@@@@@@@@@@@@@@@@@@@@@@XXXX    ..#################################..@@.#####.@@@@@@@@@@.      .#####.  .##. .#######################.                 ",
".@@@@@@@@@@@@@@@@@@@@@@@@@@@@@@@@XXXXX     ..#####.........................###.@@.####.@@@@@@@@@@.     .######.  .#.  .#######################.                 ",
".@@@@@@@@@@@@@@@@@@@@@@@@@@@@@@@@XXXXX       ...##.        XXXXX@@@@@@@@@@@.###.@.####.@@@@@@@@@@.     .#####.  .##. .########################.                 ",
".@@@@@@@@@@@@@@@@@@@@@@@@@@@@@@@@XXXXX          ..#.       XXXXX@@@@@@@@@@@@.##.@@.####.@@@@@@@@@.    .######.  .#.  .#######################.                  ",
".@@@@@@@@@@@@@@@@@@@@@@@@@@@@@@@@XXXXXX           ..  ....................@@@.##.@.####.@@@@@@@@@.    .#####.  .##. .########################.                  ",
".@@@@@@@@@@@@@@@@@@@@@@@@@@@@@@@@@XXXXX                .##################..@.##.@@.###.@@@@@@@@@.   .######.  .#.  .#######################.                   ",
".@@@@@@@@@@@@@@@@@@@@@@@@@@@@@@@@@XXXXXX               .####################.@.##.@.###.@@@@@@@@@.   .#####.  .##. .########################.                   ",
".@@@@@@@@@@@@@@@@@@@@@@@@@@@@@@@@@XXXXXXX               .###################.@@.#.@.###.@@@@@@@@@.   .#####.  .#.  .#######################.                    ",
".@@@@@@@@@@@@@@@@@@@@@@@@@@@@@@@@@@XXXXXXX             X.####################.@.#.@.####.@@@@@@@@.  .#####.  .##. .########################.                    ",
".@@@@@@@@@@@@@@@@@@@@@@@@@@@@@@@@@@@XXXXXXXX         XXXX.###################.@.#.@.####.@@@@@@@@.  .#####.  .#.  .#######################.                     ",
".@@@@@@@@@@@@@@@@@@@@@@@@@@@@@@@@@@@@XXXXXXXXXXX XXXXXXXX...............#####.@.#.@.####.@@@@@@@@. .#####.  .##. .#####....................                     ",
".@@@@@@@@@@@@@@@@@@@@@@@@@@@@@@@@@@@@@XXXXXXXXXXXXXXXXXXXXX@@@@@@@@@@@@.#####.@.#.@.####.@@@@@@@@. .#####.  .#.  .####.                                         ",
".@@@@@@@@@@@@@@@@@@@@@@@@@@@@@@@@@@@@@@XXXXXXXXXXXXXXXXXXX@@@@@@@@@@@@.######.@.#.@.####.@@@@@@@@..#####.  .##. .####.                                          ",
".@@@@@@@@@@@@@@@@@@@@@@@@@@@@@@@@@@@@@@@@XXXXXXXXXXXXXXX@@@@@@@@@@@@@@.######.@.#.@.####.@@@@@@@@..#####.  .#.  .####.                                          ",
".@@@@@@@@@@@@@@@@@@@@@@@@@@@@@@@@@@@@@@@@@@XXXXXXXXXXX@@@@@@@@@@@@@@@@.#####.@.#.@.####.@@@@@@@@@.#####.  .##. .####.                                           ",
".@@@@@@@@@@@@@@@@@@@@@@@@@@@@@@@@@@@@@@@@@@@@@@@@@@@@@@@@@@@@@@@@@@@@.######.@.#.@.####.@@@@@@@@@.#####.  .#.  .####.                                           ",
".@@@@@@@@@@@@@@@@@@@@@@@@@@@@@@@@@@@@@@@@@@@@@@@@@@@@@@@@@@@@@@@@@@@@.#####.@.#.@@.####.@@@@@@@@..####.  .##. .####.                                            ",
".@@@@@@@@@@@@@@@@@@@@@@@@@@@@@@@@@@@@@@@@@@@@@@@@@@@@@@@@@@@@@@@@@@@@.#####.@.#.@@.####.@@@@@@@@.#####.  .#.  .####.                                            ",
".@@@@@@@@@@@@@@@@@@@@@@@@@@@@@@@@@@@@@@@@@@@@@@@@@@@@@@@@@@@@@@@@@@@@.####.@.#.@@.#####.@@@@@@@.#####.  .##. .####.                                             ",
".@@@@@@@@@@@@@@@@@@@@@@@@@@@@@@@@@@@@@@@@@@@@@@XXX@@@@@@@@@@@@@@@@@@.#####.@.#.@@.####.@@@@@@@@.#####.  .#.  .####.                                             ",
".@@@@@@@@@@@@@@@@@@@@@@@@@@@@@@@@@@@@@@@@@@@@XXXXXXX@@@@@@@@@@@@@@@@.#####.@.#.@.#####.@@@@@@@.#####.  .##. .####.                                              ",
".@@@@@@@@@@@@@@@@@@@@@@@@@@@@@@@@@@@@@@@@@@@XXXXXXXXX@@@@@@@@@@@@@@@.####.@.##.@.#####.@@@@@@@.#####.  .#.  .####.                                              ",
".@@@@@@@@@@@@@@@@@@@@@@@@@@@@@@@@@@@@@@@@@@@XXXXXXXXXX@@@@@@@@@@@@@.#####.@.##.@.####.@@@@@@@.#####.  .##. .####.                                               ",
".@@@@@@@@@@@@@@@@@@@@@@@@@@@@@@@@@@@@@@@@@@XXXXXXXXXXX@@@@@@@@@@@@@.#####.@.#.@.#####.@@@@@@@.......  ...  ......                                               ",
".@@@@@@@@@@@@@@@@@@@@@@@@@@@@@@@@@@@@@@@@@@XXXXXXXXXXX@@@@@@@@@@@@@.#####.@.#.@.####.@@@@@@@@@@@@.                                                              ",
".@@@@@@@@@@@@@@@@@@@@@@@@@@@@@@@@@@@@@@@@@@XXXXXXXXXXX@@@@@@@@@@@@@.####.@.##.@.####..............................................................              ",
".@@@@@@@@@@@@@@@@@@@@@@@@@@@@@@@@@@@@@@@@@@XXXXXXXXXXX@@@@@@@@@@@@@.####.@.##.@.##################################################################..            ",
".@@@@@@@@@@@@@@@@@@@@@@@@@@@@@@@@@@@@@@@@@@XXXXXXXXXXX@@@@@@@@@@@@@.####.@.##.@.####################################################################..          ",
".@@@@@@@@@@@@@@@@@@@@@@@@@@@@@@@@@@@@@@@@@@XXXXXXXXXXX@@@@@@@@@@@@@.####.@@.#.@.######################################################################..        ",
".@@@@@@@@@@@@@@@@@@@@@@@@@@@@@@@@@@@@@@@@@@XXXXXXXXXXX@@@@@@@@@@@@@.#####.@.#.@@.#######################################################################.       ",
".@@@@@@@@@@@@@@@@@@@@@@@@@@@@@@@@@@@@@@@@@@XXXXXXXXXXX@@@@@@@@@@@@@.#####.@.#.@@.########################################################################.      ",
".@@@@@@@@@@@@@@@@@@@@@@@@@@@@@@@@@@@@@@@@@@XXXXXXXXXXX@@@@@@@@@@@@@@.####.@.##.@@.########################################################################.     ",
".@@@@@@@@@@@@@@@@@@@@@@@@@@@@@@@@@@@@@@@@@@XXXXXXXXXXX@@@@@@@@@@@@@@.####.@@.##.@@...............................................................#########.     ",
".@@@@@@@@@@@@@@@@@@@@@@@@@@@@@@@@@@@@@@@@@@XXXXXXXXXXX@@@@@@@@@@@@@@.#####.@.###.@@@@@@@@@@@@@@@@.                                               ..########.    ",
".@@@@@@@@@@@@@@@@@@@@@@@@@@@@@@@@@@@@@@@@@@XXXXXXXXXXX@@@@@@@@@@@@@@@.#####.@.###.@@@@@@@@@@@@@@@.                                                 ..#######.   ",
".@@@@@@@@@@@@@@@@@@@@@@@@@@@@@@@@@@@@@@@@@@XXXXXXXXXXX@@@@@@@@@@@@@@@.#####.@@..##................................................................   ..#####.   ",
".@@@@@@@@@@@@@@@@@@@@@@@@@@@@@@@@@@@@@@@@@@XXXXXXXXXXX@@@@@@@@@@@@@@@.######.@@@.#################################################################..   .#####.  ",
".@@@@@@@@@@@@@@@@@@@@@@@@@@@@@@@@@@@@@@@@@@XXXXXXXXXXX@@@@@@@@@@@@@@@.#######.@@@................................................................###..  .####.  ",
".@@@@@@@@@@@@@@@@@@@@@@@@@@@@@@@@@@@@@@@@@@XXXXXXXXXXX@@@@@@@@@@@@@@@@.#######..@@@@@@@@@@@@@@@@@.                                               ..###. .####.  ",
".@@@@@@@@@@@@@@@@@@@@@@@@@@@@@@@@@@@@@@@@@@XXXXXXXXXXX@@@@@@@@@@@@@@@@.#########..@@@@@@@@@@@@@@@.                                                 ..#.  .####. ",
".@@@@@@@@@@@@@@@@@@@@@@@@@@@@@@@@@@@@@@@@@@XXXXXXXXXXX@@@@@@@@@@@@@@@@@.##########...............................................................   .##.  .###. ",
".@@@@@@@@@@@@@@@@@@@@@@@@@@@@@@@@@@@@@@@@@@@XXXXXXXXX@@@@@@@@@@@@@@@@@@@.########################################################################..  .#.  .###. ",
".@@@@@@@@@@@@@@@@@@@@@@@@@@@@@@@@@@@@@@@@@@@XXXXXXXXX@@@@@@@@@@@@@@@@@@@@.#########################################################################. .##. .####.",
".@@@@@@@@@@@@@@@@@@@@@@@@@@@@@@@@@@@@@@@@@@@@XXXXXXX@@@@@@@@@@@@@@@@@@@@@@.########################################################################. .##. .####.",
".@@@@@@@@@@@@@@@@@@@@@@@@@@@@@@@@@@@@@@@@@@@@@@@o@@@@@@@@@@@@@@@@@@@@@@@@@@..#######################################################################. .#. .####.",
".@@@@@@@@@@@@@@@@@@@@@@@@@@@@@@@@@@@@@@@@@@@@@@@@@@@@@@@@@@@@@@@@@@@@@@@@@@@@.######################################################################. .#. .####.",
".@@@@@@@@@@@@@@@@@@@@@@@@@@@@@@@@@@@@..@@@@@@@@@@@@@@@@@@..@@@@@@@@@@@@@@@@@@@..####################################################################. .#. .####.",
" ....................................  ..................  ....................................................................................#####. .#. .####.",
"                                                                                                                                              .#####. .#. .####.",
"                                                                                  .......  ...  ......                                       .#####.  .#. .####.",
"                                                                                  .#####.  .#.  .####.                                       .#####.  .#. .####.",
"                                                                                 .#####.  .#.  .####.                                       .#####.   .#. .###. ",
"                                                                                 .#####.  .#.  .####.                                       .#####.  .#.  .###. ",
"                                                                                 .#####. .#.  .####.                                       .#####.   .#. .####. ",
"                                                                                .#####.  .#.  .####.                                       .#####.  .#.  .###.  ",
"                                                                                .#####. .#.  .####.                                       .#####.   .#. .####.  ",
"                                                                               .#####.  .#.  .####.                                       .#####.  .##. .###.   ",
"                                                                               .#####. .#.  .####.                                       .#####.   .#. .####.   ",
"                                                                               .#####. .#.  .####.                                       .#####.  .##. .####.   ",
"                                                                              .#####. .#.  .####.                                       .#####.   .#. .####.    ",
"                                                                              ....... ...  ......                                       .......  .... ......    "
};
