/* XPM */
static const char* mmbexplorer_64x64[] = {
/* columns rows colors chars-per-pixel */
"64 64 168 2 ",
"   c #000000",
".  c #0B0B0B",
"X  c #181818",
"o  c #2F2F2F",
"O  c #323232",
"+  c gray24",
"@  c #007300",
"#  c #007C00",
"$  c #2C7B2C",
"%  c #237B23",
"&  c #3C6E3C",
"*  c #317631",
"=  c #3C713C",
"-  c #66413B",
";  c #444444",
":  c #4B4B4B",
">  c #545454",
",  c #5B5655",
"<  c #5A5857",
"1  c #5C5C5C",
"2  c #694943",
"3  c #7E554D",
"4  c #635857",
"5  c #795953",
"6  c #745D59",
"7  c #795853",
"8  c #426D42",
"9  c #4C6B4C",
"0  c #546A54",
"q  c #5C685C",
"w  c #6E615F",
"e  c #666666",
"r  c #6B6B6B",
"t  c #717171",
"y  c #7D7D7D",
"u  c #96502E",
"i  c #9A522B",
"p  c #9E5226",
"a  c #884C39",
"s  c #A25422",
"d  c #805249",
"f  c #A16740",
"g  c #008300",
"h  c #008A00",
"j  c #0A850A",
"k  c #009300",
"l  c #009C00",
"z  c #108010",
"x  c #128F12",
"c  c #109110",
"v  c #00A400",
"b  c #00AC00",
"n  c #00B300",
"m  c #00BB00",
"M  c #00C300",
"N  c #00C800",
"B  c #F3950E",
"V  c #F59D1B",
"C  c #F39812",
"Z  c #D2892C",
"A  c #CD8630",
"S  c #DB993D",
"D  c #F29E20",
"F  c #F6A324",
"G  c #F7A628",
"H  c #FFAD29",
"J  c #FFB02E",
"K  c #FFB234",
"L  c #FFB63B",
"P  c #D39646",
"I  c #D79843",
"U  c #D99940",
"Y  c #FFB942",
"T  c #FFBE4A",
"R  c #FFC04F",
"E  c #FFC355",
"W  c #FFC65A",
"Q  c #5E7A9C",
"!  c #567295",
"~  c #64748F",
"^  c #6A7A92",
"/  c #657590",
"(  c #72859E",
")  c #7B869A",
"_  c #6A89AC",
"`  c #708EAF",
"'  c #768BA6",
"]  c #6F8FB1",
"[  c #7695B6",
"{  c #7D9ABA",
"}  c #7C96B3",
"|  c #7D9DC0",
" . c #838383",
".. c #8C8C8C",
"X. c #838C9D",
"o. c #89919F",
"O. c gray57",
"+. c #9C9C9C",
"@. c #818EA2",
"#. c #8C93A1",
"$. c #959BA6",
"%. c #999EA8",
"&. c #949BA7",
"*. c #819FBF",
"=. c #9BA0A9",
"-. c #9CAABC",
";. c #A4A4A4",
":. c #AEAEAE",
">. c #A0A4AD",
",. c #A8ABB2",
"<. c #A7ABB2",
"1. c #AEB1B6",
"2. c #B4B5B5",
"3. c #B4B6BA",
"4. c #BCBCBC",
"5. c #B7B9BC",
"6. c #83A3C3",
"7. c #97B0CA",
"8. c #8EB2D9",
"9. c #94B6D9",
"0. c #AEB7C5",
"q. c #B4BBC6",
"w. c #BCBDC0",
"e. c #B5BFCD",
"r. c #A0B7D0",
"t. c #A9BED4",
"y. c #9BBFE5",
"u. c #BFC1C3",
"i. c #B8C7D9",
"p. c #9CC1EA",
"a. c #B1CDEC",
"s. c #A8CBF0",
"d. c #ACD4FF",
"f. c #B2D7FF",
"g. c #BCDCFF",
"h. c #C3C3C3",
"j. c #CCCCCC",
"k. c #C4C6C9",
"l. c #C0CFDF",
"z. c #C7CBD1",
"x. c #CED1D6",
"c. c #D2D2D2",
"v. c #DFDFDF",
"b. c #C8D7E6",
"n. c #CED8E3",
"m. c #D8DEE6",
"M. c #D2DCE5",
"N. c #C5DCF4",
"B. c #DBE3EB",
"V. c #DDE0E3",
"C. c #C5E1FF",
"Z. c #CBE3FE",
"A. c #D2E7FF",
"S. c #D7EAFF",
"D. c #DDEDFF",
"F. c #DAE5F1",
"G. c #E4E4E4",
"H. c #EAEAEB",
"J. c #E5E7E9",
"K. c #E6EDF3",
"L. c #E9EEF4",
"P. c #E5F2FE",
"I. c #E8F3FF",
"U. c #F4F4F4",
"Y. c #F3F7FD",
"T. c #F5FAFF",
"R. c #FFFFFF",
"E. c None",
/* pixels */
"E.E.E.E.E.E.E.E.e e e e e e e e e e e e e e e e e e e e e e e e e e e e e e e e e e e e e e e e e e e e e e e e e e e e e e e e ",
"E.E.E.E.E.E.E.e e e e e e e e e e e e e e e e e e e e e e e e e e e e e e e e e e e e e e e e e e e e e e e e e e e e e e e e e ",
"E.E.E.E.E.E.E.e e e :.h.h.h.h.h.h.h.h.h.h.h.h.h.h.h.h.h.h.h.h.h.h.h.h.h.2.e e e e e e e e e e e e e e e e e e e e e e e e e e e ",
"E.E.E.E.E.E.E.e e r R.R.R.R.R.R.R.R.R.R.R.R.R.R.R.R.R.R.R.R.R.R.R.R.R.R.R...e e e e e e e e e e e e e e e e e e e e e e e e r e ",
"E.E.E.E.E.E.E.e e r R.R.R.R.R.R.R.R.R.R.R.R.R.R.R.R.R.R.R.R.R.R.R.R.R.R.R...e e e e e e e e e e e e e e e e e e e e e e e e e e ",
"E.E.E.E.E.E.E.e e r R.J.J.U.R.R.U.J.H.R.J.G.R.R.R.H.H.U.R.U.J.G.J.J.G.R.R...e e e e e e e e e e e e e e e e e e e e e e e e e e ",
"E.E.E.E.E.E.E.e e r R.t   h.U.U.h.  t U.    G.R.U...  5.R.c.  X + +   v.R...e r e e e e e e e e e e r e e e e e e e e e e e e e ",
"E.E.E.E.E.E.E.e e r R.t     h.h.    t H.      H. .    5.R.c.  r R.R.    G...e e r e e e e e e e e e e e e e e e e e e e e e e e ",
"E.E.E.E.E.E.E.e e r R.t             t H.              4.R.c.  r R.R.    G...e e e e e e e e e e e e e e e e e e e e e e e e e e ",
"E.E.E.E.E.E.E.e e r R.t   4.;.;.w.  t U.    G.e c...  4.R.c.  X : >   v.R...e e e e e e e e e e e e e e e e e e e e e e e e e e ",
"E.E.E.E.E.E.E.e e r R.t   j.U.U.j.  t U.    U.J.R.O.  5.R.c.  e J.J.  r J.O.e e e e e e e e e e e e e e e e e e e e e e e e e e ",
"E.E.E.E.E.E.E.e e r R.t   j.R.R.j.  t H.    U.R.R.O.  5.R.c.  r R.R.    G...e e e e e e e e e e e e e e e r e e e e e e e e e e ",
"E.E.E.E.E.E.E.e e r R.t   j.R.R.j.  t U.    U.R.R.O.  5.R.c.  ; ;.;.  4.U.O.e e e e e e e e e e e e e e e e e e e e e e e e e e ",
"E.E.E.E.E.E.E.e e r R.j.4.J.R.R.J.4.j.U.u.4.U.R.R.c.4.G.R.J.4.w.4.4.u.U.R...e e e e e e e e e e e e e e e e e e e e e e r e e E.",
"E.E.E.E.E.E.E.e e r R.R.R.R.R.R.R.R.R.R.R.R.R.R.R.R.R.R.R.R.R.R.R.R.R.R.R...e e e e e e e e e e e e e e e e e e e e e e e e E.E.",
"E.E.E.E.E.E.E.e e e U.R.R.R.R.R.R.R.R.R.R.R.R.R.R.R.R.R.R.R.R.R.R.R.R.R.R.y e e e e e e e e e e e e e e e e e e e e e e e e E.E.",
"E.E.E.E.E.E.E.e e e t ............................................O.....y e e e e e e e e e e e e e e e e e e e e e e e e e e e ",
"E.E.E.E.E.E.E.e e e e e e e e e e e e e r e e e e e e e e e e e e e e e e e e e e e e e e e e e e e e e e e e e e e e e e e e e ",
"E.E.E.E.E.E.E.e e e e e e e e e e e e e e e e e e e e e e e e e e e e 1 e e e e e e e e e e e e e e e e e e e e e e e e e e e e ",
"E.E.E.E.E.E.E.e e e e e e e e e e e e e e e e e e e e e e e e > 1  .+.+...e : 1 e e e e e e e e e e e e e e e e e e e e e e e e ",
"E.E.E.E.E.E.E.e e e e e e e e e e e e e e e e e e e e e e >  .h.k.%.#.o.$.1.5...: 1 e e e e e e e e e e e e e e e e e e e e e e ",
"E.E.E.E.E.E.E.e e e e e e e e e e e e e e e e e e e e e > 3.4.) 0.m.L.L.m.e.( $.5.e 1 e e e e e e e e e e e r e e e e e e e e e ",
"E.E.E.E.E.E.E.e e e e e 0 0 0 e e e e e e e e e e e e > k.%.q.Y.R.R.R.R.R.R.U.i.^ 4.r e e e e e e e e e e e e e e e e e e e e e ",
"E.E.E.E.E.E.E.e e e & x b n b v $ 0 e e e e e e e e > 5.%.x.R.R.R.R.R.R.R.R.T.i.{ ~ 4.: e e e e e e e e e e e e e e e r e e e e ",
"E.E.E.E.E.E.E.e 0 x m N N N N N N v 8 e e e e e e e  .u.q.R.R.R.R.R.R.R.R.I.g.s.6.` X.+.> e e e e e e e e e e e e e e e e e e e ",
"E.E.E.E.E.E.E.= v N N N N N N N N N n = e e r e e > h.o.T.R.R.R.R.R.R.R.S.g.g.f.p.[ ! 4.> e e e e e e e e e e e e e e e e e e e ",
"E.E.E.E.E.E.E.v N N N M M N N M M N M n 8 e e e e : x.q.R.R.R.R.R.R.R.S.C.g.g.f.d.6._ $. .e e e e e e e e e e e e e e e e e e e ",
"E.E.E.E.E.E.k M M M M N N M M M N M M M c 0 e e e y 3.v.R.R.R.R.R.T.S.Z.C.C.f.f.d.8.] ( +.1 e e e e e e e e e e e e e e e e e e ",
"E.E.E.E.E.# m M M M M M M M M M M M M M M * e e e ..>.J.R.R.R.R.T.S.A.Z.C.C.f.f.d.y.] ^ ;.< e e e e e e e e e e e e e e e e e e ",
"E.E.E.E.E.b M M M M M M M M M M M M M M M v 0 e e  .<.J.R.R.R.Y.P.S.A.Z.C.g.g.f.d.y.] ^ ;.< 1 e e e e r e e e e e e e e e e e e ",
"E.E.E.E.g m M m M m M m m M M M M M M m M m * e e 1 k.z.R.R.Y.P.D.S.A.Z.C.g.g.f.d.8.` X.O.O   : e e e e e e e e e e e r e e e e ",
"E.E.E.E.v M m M m M m M M m m m m m m M m M l q e : k.%.T.L.P.P.D.S.A.Z.C.C.f.f.d.| Q 1.e o   + e e e e e e e e e e e e e e e e ",
"E.E.E.@ m m m m M m m m m m M m M m m m m m n 8 e < +.%.M.K.F.P.D.S.A.Z.C.C.f.f.9.[ ~ 2.; e > 1 e e e e e e e r e e e e e e e e ",
"E.E.E.k m m m m m m m m m m m m m m m m m m m % e e ; h.X.B.F.F.D.S.A.Z.C.g.g.p.*.! 3.r < e e e e e e e e e e e e e e e e e e e ",
"E.E.E.b m m m m m m m m m m m m m m m m m m m l q e > t h.X.n.M.b.N.A.Z.N.a.7.6.Q ,...: e e e e e e e e e e e e e e e e e e e e ",
"E.E.@ n m m m m n m m m m m n m n m m m m m m b 9 e e : t 4.o.-.l.i.i.t.r.7.} ^ 3...+ 1 e e e e e e e e e e e e e e e e e e e e ",
"E.E.g m m n m m m m m n n m m m m m m n m n m n 8 e e q : > ;.5.$.@.' ' ( ) ,.2.r ; . 2 f 6 e e e e e e e e e e e e e e e e e e ",
"E.E.k n n m n n n n m n m n n n n n m n m n n n $ e e e e > ; > ..;.5.4.:.+.r ; > 1 - Z W P 6 e e e e e e e e e e e e e e e e e ",
"E.E.l n n n n m n n n n n n n n n n n n n n m n j e e e e e e > > ; ; ; : : > 1 e e a G Y E P 6 e e e e e e e e e e e e e e e e ",
"E.E.b n n n n n n n n n n n n n n n n n n n n n k q e e e e e e e 1 1 1 1 q e e e e 4 s F L E P 5 e e e e e e e e e e e e e e e ",
"E.@ b n n n b n n n n n n b n n n n n n n n n n l q e e e e e e e e > ; : e e e e e e , s D L T P 3 e e e e e e e e e e e e e e ",
"E.@ n n b n b n n b b n b n n n n n b n b n n b l 0 e e e e e e e ;       O e e e e e e , s V K R I 5 e e e e e e r e e e e e e ",
"E.g n b b n n b b n b n n b n b b b b b b b b n l 0 e e e e e e e           > e e e e e e , p V K T U 3 e e e e e e e e e e e e ",
"E.g v b b v v b b v b v v b v b b b b b b b b v l 0 e e e e e e <           : e e e e e e e , i V J Y U d e e e e e e e e e e e ",
"E.E.@ @ @ @ @ & 8 8 8 8 8 8 8 8 8 8 8 8 8 8 8 8 8 q e e e e e e <           : e e e e e e e e , i C H Y S d e e e e e e e e e e ",
"E.E.E.E.E.E.E.q q q e 0 0 e 0 q q q q q q q q q q q e e e e e e 1           : e e e e e e e e e , u C H Y A w e e e e e e e e e ",
"# k k k k k k k k k k k k k k k k k k k k k k k k g q e e e e e 1           : e e e e e e e e e e < u B D i e e e e e e e e e e ",
"# v b v b v b v b v v b v v v b v v v b v v b v b j e e e e e e <           : e e e e e e e e e e e < a a < e e e e e e e e e e ",
"@ v v v v v b v b v v v v v v b v v v v b v v v v * e e e e e e 1           : e e e e e e e e e e e e 1 1 e e e e e e e e e e e ",
"E.k b v v v v v v v v v v b v v v v v v v v v v l 9 e e e e e e 1           : e e e e e e e e e e e e e e e e e e e e e e e e e ",
"E.g v v v v v v v v v v v v v v v v v v v v v v j e e e e e e e 1           : e e e e e e e e e e e e e e e e e e e e e e e e e ",
"E.E.k l l v v l v v l v l v l v v v l v v l v l 8 e e e e e e e 1           : e e e e e e e r e e e e e e e e e e e e e e e e e ",
"E.E.# l l v l v v l l v v v l v v v l l l v v z q e e e e e e e e           > e e e e e e e e e e e e e e e e e e r e e e e e e ",
"E.E.E.# l l v l l v l v l l l l l l l v v l h 9 e e e e e e e e e ;       O e e e e e e e e e e e e e e e e e e e e e e e e e e ",
"E.E.E.E.g l l l l l l l l l l l l l l l l h 8 e e e e e e e e e e e > : > e e e e e e e e e e e e e e e e e e e e e e e e e e e ",
"E.E.E.E.E.# k l l l l l l l l l l l l l h 8 e e e e e e e e e e e e e e e e e e e e e e e e e e e e e e e e e e e e e e e e e e ",
"E.E.E.E.E.E.@ g l l l l l l l k l k h % 0 e e e e e e e e E.e e e e e e e e e e e E.e e e e e e e e e e e e e e e e e e e e e e ",
"@ @ # # @ E.E.E.@ # h k k l k h # @ E.E.E.E.E.E.E.E.E.E.E.E.E.E.E.E.E.E.E.E.E.E.E.E.E.E.E.E.E.E.E.E.E.E.E.E.E.E.E.E.E.E.E.E.E.E.",
"E.E.E.# # g g # @ E.E.# k h @ E.E.E.E.E.E.E.E.E.E.E.E.E.E.E.E.E.E.E.E.E.E.E.E.E.E.E.E.E.E.E.E.E.E.E.E.E.E.E.E.E.E.E.E.E.E.E.E.E.",
"E.E.E.E.E.E.@ g g h g h l # E.E.E.E.E.E.E.E.E.E.E.E.E.E.E.E.E.E.E.E.E.E.E.E.E.E.E.E.E.E.E.E.E.E.E.E.E.E.E.E.E.E.E.E.E.E.E.E.E.E.",
"E.E.E.E.E.E.E.E.E.@ # h k h @ E.E.E.E.E.E.E.E.E.E.E.E.E.E.E.E.E.E.E.E.E.E.E.E.E.E.E.E.E.E.E.E.E.E.E.E.E.E.E.E.E.E.E.E.E.E.E.E.E.",
"E.E.E.E.E.E.E.E.E.E.E.E.@ # g g @ E.E.E.E.E.E.E.E.E.E.E.E.E.E.E.E.E.E.E.E.E.E.E.E.E.E.E.E.E.E.E.E.E.E.E.E.E.E.E.E.E.E.E.E.E.E.E.",
"E.E.E.E.E.E.E.E.E.E.E.E.E.E.E.@ # @ @ E.E.E.E.E.E.E.E.E.E.E.E.E.E.E.E.E.E.E.E.E.E.E.E.E.E.E.E.E.E.E.E.E.E.E.E.E.E.E.E.E.E.E.E.E.",
"E.E.E.E.E.E.E.E.E.E.E.E.E.E.E.E.E.E.@ @ E.E.E.E.E.E.E.E.E.E.E.E.E.E.E.E.E.E.E.E.E.E.E.E.E.E.E.E.E.E.E.E.E.E.E.E.E.E.E.E.E.E.E.E."
};
