/* XPM */
static const char *iconEmpty[] = {
/* columns rows colors chars-per-pixel */
"24 24 2 1 ",
"0 c None",
". c #000000",
/* pixels */
"000000000000000000000000",
"00....................00",
"0.00000000000000000000.0",
"0.00.....0000000000000.0",
"0.0.00000.000000000000.0",
"0.0.00000.00000000000..0",
"0.0.00000.00000000000.00",
"0.00.....000000000000..0",
"0.000000000..000000000.0",
"0.00000000.00.00000000.0",
"0.0000000.0000.0000000.0",
"0.0000000.0000.0000000.0",
"0.00000000.00.00000000.0",
"0.000000000..000000000.0",
"0.00000000000000000000.0",
"0.000000000..000000000.0",
"0.00000000.00.00000000.0",
"0.00000000.00.00000000.0",
"0.00000000.00.00000000.0",
"0.00000000.00.00000000.0",
"0.00000000.00.00000000.0",
"0.00000000.00.00000000.0",
"00....................00",
"000000000000000000000000"
};