/* XPM */
static const char *iconLocked[] = {
/* columns rows colors chars-per-pixel */
"24 24 6 1 ",
"  c None",
". c #000000",
"X c #844A31",
"o c #ECC226",
"O c #A0A0A0",
"+ c #E3E3D9",
/* pixels */
"                        ",
"  ....................  ",
" ...................... ",
" ..++++++.............. ",
" ..++++++.............. ",
" ..++++++.............. ",
" ..++++++.............  ",
" ...................... ",
" ..........XX.......... ",
" .........X  X......... ",
" ........X    X........ ",
" ........X    X..OOO... ",
" .........X  X..O...O.. ",
" ..........XX...O...O.. ",
" ..............ooooooo. ",
" ..............ooooooo. ",
" ..........XX..oo...oo. ",
" ..........XX..oo...oo. ",
" ..........XX..ooo.ooo. ",
" ..........XX..ooo.ooo. ",
" ..........XX..ooooooo. ",
" ..........XX.......... ",
"  ....................  ",
"                        "
};
